<svg width="197" height="62" viewBox="0 0 197 62" fill="none" xmlns="http://www.w3.org/2000/svg">
<path d="M9.77479e-05 13.5105C1.98525 12.8542 3.84736 12.2472 5.58643 11.6894C7.34189 11.1315 9.1876 10.6065 11.1235 10.1144C13.0595 9.60576 14.9134 9.20381 16.6853 8.9085C18.047 8.67881 19.4415 8.56397 20.8688 8.56397C23.2478 8.56397 24.8063 8.62959 25.5446 8.76084C26.6603 8.97412 27.7103 9.31865 28.6946 9.79444C29.6954 10.2702 30.5813 10.9101 31.3524 11.714C32.1399 12.5015 32.7798 13.4366 33.272 14.5194C33.4688 14.9624 33.5673 15.43 33.5673 15.9222C33.5673 17.7597 32.5583 20.0237 30.5403 22.7144C28.5388 25.405 26.5208 27.7511 24.4864 29.7526C22.4685 31.7542 20.9591 33.1897 19.9583 34.0593L24.388 49.5878L17.9403 54.239L6.64463 21.9761C6.61182 21.9761 6.45596 22.1319 6.17705 22.4437C5.89814 22.7554 5.529 23.1655 5.06963 23.6741C4.62666 24.1663 4.34775 24.4698 4.23291 24.5847C4.18369 24.5847 4.01963 24.2319 3.74072 23.5265C3.47822 22.821 3.11729 21.8448 2.65791 20.598C2.21494 19.3347 1.71455 17.9401 1.15674 16.4144C0.58252 14.8722 0.196973 13.9042 9.77479e-05 13.5105ZM15.9224 20.3519L17.9403 27.6116C18.9575 26.578 20.2208 25.1671 21.7302 23.3788C23.2395 21.5905 23.9942 20.2944 23.9942 19.4905C23.9942 19.1788 23.863 18.9983 23.6005 18.9491C22.8622 18.7851 22.1321 18.703 21.4103 18.703C19.2446 18.703 17.4153 19.2526 15.9224 20.3519ZM52.0489 25.9628C53.2138 26.5862 54.1571 27.4312 54.879 28.4976C55.6173 29.5476 56.1505 30.737 56.4786 32.0659C56.8231 33.3784 56.9954 34.7483 56.9954 36.1757C56.9954 37.3569 56.897 38.4972 56.7001 39.5964C56.5196 40.6956 56.2653 41.7046 55.9372 42.6233C55.6091 43.5421 55.2235 44.3214 54.7806 44.9612C53.747 46.5034 52.6395 47.8323 51.4583 48.9479C50.277 50.0636 49.0712 50.9659 47.8407 51.655C46.6103 52.3276 45.388 52.8198 44.1739 53.1315C42.9763 53.4597 41.7868 53.6237 40.6056 53.6237C39.211 53.6237 37.8821 53.4022 36.6188 52.9593C35.372 52.5327 34.3056 51.9667 33.4196 51.2612C31.9595 50.0472 30.8192 48.4147 29.9989 46.364C29.1786 44.2968 28.7685 42.1147 28.7685 39.8179C28.7685 35.864 29.9087 32.673 32.1892 30.2448C34.1415 28.1612 36.1595 26.5944 38.2431 25.5444C40.3267 24.478 42.4595 23.9448 44.6415 23.9448C45.9212 23.9448 47.1517 24.1089 48.3329 24.437C49.5142 24.7487 50.7528 25.2573 52.0489 25.9628ZM50.597 30.0972C50.3181 31.344 49.711 32.4433 48.7759 33.3948C47.8571 34.3464 46.9548 34.8222 46.0688 34.8222C45.6259 34.8222 45.2321 34.7073 44.8876 34.4776C44.3954 34.0839 44.1493 33.3948 44.1493 32.4105C44.1493 31.6558 44.3954 30.9093 44.8876 30.171C45.3962 29.4327 46.1919 28.8503 47.2747 28.4237C46.1919 28.4237 45.1419 28.6288 44.1247 29.039C43.1239 29.4491 42.2626 29.9823 41.5407 30.6386C40.8188 31.2784 40.2364 32.0085 39.7935 32.8288C39.3669 33.6327 39.1536 34.4448 39.1536 35.2651C39.1536 36.7909 39.8591 38.005 41.27 38.9073C42.5825 39.744 43.8294 40.1624 45.0106 40.1624C46.1755 40.1624 47.2091 39.7769 48.1114 39.0058C49.0138 38.2183 49.7028 37.2175 50.1786 36.0034C50.6544 34.773 50.8923 33.5589 50.8923 32.3612C50.8923 31.5409 50.7938 30.7862 50.597 30.0972ZM52.9103 11.4925L65.4118 6.25069L67.2329 34.6745L77.5196 29.039L88.2001 30.6386L74.2712 41.319L87.388 51.212L87.9786 61.0804L68.6356 47.1761L69.2509 59.2593L57.5368 59.4808L55.322 16.7343L51.7044 17.5464L52.9103 11.4925ZM105.328 39.0058L111.259 46.1671C110.783 47.5452 109.651 48.8085 107.863 49.9569C106.091 51.1054 103.975 52.0077 101.514 52.664C99.0692 53.3366 96.6247 53.6729 94.1802 53.6729C92.0145 53.6729 90.0786 53.3858 88.3724 52.8116C86.6825 52.2374 85.3782 51.3679 84.4595 50.203C82.8681 48.2015 82.0724 45.6421 82.0724 42.5249C82.0724 40.064 82.5153 37.644 83.4013 35.2651C84.3036 32.8698 85.2552 31.1964 86.256 30.2448C87.4536 29.1128 88.7497 28.1694 90.1442 27.4147C91.5552 26.6601 93.0153 26.094 94.5247 25.7167C96.0341 25.3394 97.5845 25.1507 99.1759 25.1507C101.259 25.1507 103.236 25.487 105.107 26.1597C106.993 26.8159 108.642 27.7757 110.053 29.039L96.5427 45.1581C97.7403 45.1581 98.8724 44.912 99.9388 44.4198C101.022 43.9112 102.014 43.1976 102.916 42.2788C103.819 41.3437 104.623 40.2526 105.328 39.0058ZM98.5114 33.2718C97.7075 32.8616 96.8872 32.6565 96.0505 32.6565C95.1645 32.6565 94.3032 32.837 93.4665 33.198C92.6462 33.5589 92.0638 33.9855 91.7192 34.4776C90.702 35.7901 90.1935 37.2339 90.1935 38.8089C90.1935 39.3831 90.2509 39.9327 90.3657 40.4577C90.4806 40.9827 90.6774 41.7046 90.9563 42.6233L98.5114 33.2718ZM85.8622 15.5284L98.979 8.26865L104.615 16.9312L88.6923 19.9581L85.8622 15.5284Z" fill="white"/>
<path d="M124.179 28.5222C123.277 28.637 122.383 28.9241 121.497 29.3835C120.627 29.8429 119.881 30.3843 119.257 31.0077C118.634 31.6312 118.142 32.3202 117.781 33.0749C117.436 33.8132 117.264 34.5433 117.264 35.2651C117.264 36.7581 117.969 37.9722 119.38 38.9073C120.627 39.744 121.89 40.1624 123.17 40.1624C123.416 40.1624 123.752 40.1296 124.179 40.064V34.8222C123.736 34.8222 123.342 34.7073 122.998 34.4776C122.506 34.0839 122.259 33.3292 122.259 32.2136C122.259 30.6058 122.899 29.3753 124.179 28.5222ZM123.958 4.62647L134.244 -9.52668e-05L134.859 33.321C134.991 34.1741 135.056 35.1421 135.056 36.2249C135.056 37.1765 135.024 37.8819 134.958 38.3413L135.253 53.4269L124.179 54.0175V52.5163C122.374 53.2546 120.553 53.6237 118.716 53.6237C117.305 53.6237 115.976 53.4104 114.729 52.9839C113.499 52.5573 112.432 51.9831 111.53 51.2612C110.07 50.0472 108.929 48.4147 108.109 46.364C107.289 44.2968 106.879 42.1147 106.879 39.8179C106.879 35.864 108.019 32.673 110.299 30.2448C112.268 28.1776 114.294 26.6108 116.378 25.5444C118.478 24.478 120.619 23.9448 122.801 23.9448C123.408 23.9448 123.867 23.9612 124.179 23.994L123.958 4.62647ZM155.728 39.0058L161.659 46.1671C161.183 47.5452 160.051 48.8085 158.263 49.9569C156.491 51.1054 154.375 52.0077 151.914 52.664C149.469 53.3366 147.025 53.6729 144.58 53.6729C142.415 53.6729 140.479 53.3858 138.772 52.8116C137.083 52.2374 135.778 51.3679 134.859 50.203C133.268 48.2015 132.472 45.6421 132.472 42.5249C132.472 40.064 132.915 37.644 133.801 35.2651C134.704 32.8698 135.655 31.1964 136.656 30.2448C137.854 29.1128 139.15 28.1694 140.544 27.4147C141.955 26.6601 143.415 26.094 144.925 25.7167C146.434 25.3394 147.984 25.1507 149.576 25.1507C151.659 25.1507 153.636 25.487 155.507 26.1597C157.393 26.8159 159.042 27.7757 160.453 29.039L146.943 45.1581C148.14 45.1581 149.272 44.912 150.339 44.4198C151.422 43.9112 152.414 43.1976 153.316 42.2788C154.219 41.3437 155.023 40.2526 155.728 39.0058ZM148.911 33.2718C148.108 32.8616 147.287 32.6565 146.45 32.6565C145.565 32.6565 144.703 32.837 143.867 33.198C143.046 33.5589 142.464 33.9855 142.119 34.4776C141.102 35.7901 140.593 37.2339 140.593 38.8089C140.593 39.3831 140.651 39.9327 140.766 40.4577C140.881 40.9827 141.077 41.7046 141.356 42.6233L148.911 33.2718ZM175.883 47.939L169.928 55.6417L157.229 56.0354L169.534 39.7687L155.63 21.7792L169.116 22.3698L175.883 31.303L182.626 22.3698L196.137 21.7792L182.233 39.7687L194.537 56.0354L181.814 55.6417L175.883 47.939Z" fill="#CD3131"/>
</svg>
